<svg width="365" height="448" viewBox="0 0 365 448" fill="none" xmlns="http://www.w3.org/2000/svg">
<g clip-path="url(#clip0)">
<path d="M238.449 331.772H159.249C159.037 320.943 159.037 314.361 159.037 312.025C159.037 287.819 163.284 267.86 171.777 252.147C180.27 236.435 197.257 218.811 222.737 199.277C248.217 179.742 263.505 166.79 268.388 160.844C276.032 151.289 279.854 140.673 279.854 129.207C279.854 113.07 273.06 99.4802 259.47 88.0143C245.881 76.5483 227.62 70.8153 204.476 70.8153C182.181 70.8153 163.708 76.7607 148.845 88.6513C133.982 100.542 123.577 118.803 118.057 143.221L37.7949 133.878C40.1306 98.8432 55.8432 69.1167 85.1451 44.6984C114.659 20.0678 153.092 7.96484 200.867 7.96484C250.977 7.96484 290.896 20.2801 320.622 45.1231C350.349 69.966 365 98.6309 365 131.542C365 149.803 359.479 167.002 348.65 183.139C337.821 199.489 314.465 221.572 278.793 249.599C260.32 264.038 248.854 275.716 244.395 284.634C240.148 293.34 238.025 309.053 238.449 331.772ZM159.249 442.822V360.225H246.73V442.822H159.249Z" fill="#A4B8EA"/>
<path d="M295.779 315.21H41.1924V309.478H295.779C296.416 309.478 296.841 309.902 296.841 310.539V314.149C296.841 314.573 296.416 315.21 295.779 315.21Z" fill="#465AA5"/>
<path d="M43.3157 310.327H41.1924V446.644H43.3157V310.327Z" fill="#465AA5"/>
<path d="M295.779 446.857C295.142 446.857 294.718 446.432 294.718 445.795V311.388C294.718 310.751 295.142 310.327 295.779 310.327C296.416 310.327 296.841 310.751 296.841 311.388V445.795C296.841 446.432 296.416 446.857 295.779 446.857Z" fill="#465AA5"/>
<path d="M148.208 87.1648C146.722 88.6511 144.599 88.6511 143.112 87.1648C141.626 85.6784 141.626 83.5551 143.112 82.0688L149.27 75.9111C150.756 74.4248 152.88 74.4248 154.366 75.9111C155.852 77.3975 155.852 79.5208 154.366 81.0071L148.208 87.1648Z" fill="#8EA7D7"/>
<path d="M191.099 87.1648C192.585 88.6511 194.709 88.6511 196.195 87.1648C197.681 85.6784 197.681 83.5551 196.195 82.0688L190.037 75.9111C188.551 74.4248 186.428 74.4248 184.941 75.9111C183.455 77.3975 183.455 79.5208 184.941 81.0071L191.099 87.1648Z" fill="#8EA7D7"/>
<path d="M152.243 19.0063C151.181 17.3076 150.756 15.3966 150.756 13.698C150.756 6.69099 159.037 0.958008 169.017 0.958008C179.209 0.958008 187.278 6.69099 187.278 13.698C187.278 15.3966 186.853 17.0953 185.791 18.5816L183.031 16.883C183.668 15.8213 183.88 14.7596 183.88 13.4856C183.88 8.38965 176.873 3.93067 168.805 3.93067C160.524 3.93067 153.729 8.38965 153.729 13.4856C153.729 14.7596 154.154 15.8213 154.791 17.0953L152.243 19.0063Z" fill="#A5B7DF"/>
<path d="M187.15 16.5019L180.959 26.1528L193.469 34.179L199.661 24.5281L187.15 16.5019Z" fill="#F7BFC1"/>
<path d="M181.757 18.5817C181.969 17.9447 182.394 17.52 182.818 16.883C186.428 11.787 193.435 10.7254 198.319 14.1227C203.415 17.7324 204.476 24.7393 201.079 29.623C200.654 30.26 200.23 30.6847 199.805 31.1093L181.757 18.5817Z" fill="#F2948F"/>
<path d="M150.975 16.9958L138.464 25.022L144.656 34.6729L157.166 26.6467L150.975 16.9958Z" fill="#F7BFC1"/>
<path d="M193.366 78.2334C206.633 64.9662 206.633 43.4557 193.366 30.1885C180.099 16.9212 158.588 16.9212 145.321 30.1885C132.054 43.4557 132.054 64.9662 145.321 78.2334C158.588 91.5007 180.099 91.5007 193.366 78.2334Z" fill="#F2948F"/>
<path d="M175.938 81.7009C191.112 78.0965 200.491 62.8736 196.887 47.6996C193.283 32.5257 178.06 23.1466 162.886 26.751C147.712 30.3554 138.333 45.5783 141.937 60.7523C145.542 75.9263 160.764 85.3053 175.938 81.7009Z" fill="#FCE2E3"/>
<path d="M170.291 29.8356C170.291 30.4726 169.866 30.8973 169.229 30.8973C168.592 30.8973 168.167 30.4726 168.167 29.8356C168.167 29.1986 168.592 28.7739 169.229 28.7739C169.866 28.7739 170.291 29.1986 170.291 29.8356Z" fill="#465AA5"/>
<path d="M157.975 32.5958C158.188 33.0205 158.188 33.6575 157.551 34.0821C157.126 34.2945 156.489 34.2945 156.064 33.6575C155.852 33.2328 155.852 32.5958 156.489 32.1711C156.914 31.7465 157.551 31.9588 157.975 32.5958Z" fill="#465AA5"/>
<path d="M148.633 41.0892C149.058 41.3015 149.27 41.9385 149.058 42.5755C148.845 43.0002 148.208 43.2125 147.571 43.0002C147.147 42.7878 146.934 42.1508 147.147 41.5138C147.359 41.0892 147.996 40.8768 148.633 41.0892Z" fill="#465AA5"/>
<path d="M144.811 53.4043C145.448 53.4043 145.872 53.829 145.872 54.466C145.872 55.103 145.448 55.5276 144.811 55.5276C144.174 55.5276 143.749 55.103 143.749 54.466C143.749 53.829 144.174 53.4043 144.811 53.4043Z" fill="#465AA5"/>
<path d="M147.571 65.7198C147.996 65.5074 148.633 65.5074 149.058 66.1444C149.27 66.5691 149.27 67.2061 148.633 67.6308C148.208 67.8431 147.571 67.8431 147.147 67.2061C146.934 66.7814 146.934 66.1444 147.571 65.7198Z" fill="#465AA5"/>
<path d="M156.064 75.0622C156.277 74.6375 156.914 74.4252 157.551 74.6375C157.975 74.8498 158.188 75.4868 157.975 76.1238C157.763 76.5485 157.126 76.7608 156.489 76.5485C156.064 76.3362 155.852 75.6992 156.064 75.0622Z" fill="#465AA5"/>
<path d="M168.38 78.8844C168.38 78.2474 168.804 77.8228 169.441 77.8228C170.078 77.8228 170.503 78.2474 170.503 78.8844C170.503 79.5214 170.078 79.9461 169.441 79.9461C168.804 79.9461 168.38 79.5214 168.38 78.8844Z" fill="#465AA5"/>
<path d="M180.695 76.1236C180.483 75.6989 180.483 75.0619 181.12 74.6372C181.544 74.4249 182.181 74.4249 182.606 75.0619C182.818 75.4866 182.818 76.1236 182.181 76.5482C181.757 76.7606 181.12 76.7606 180.695 76.1236Z" fill="#465AA5"/>
<path d="M190.038 67.6308C189.613 67.4184 189.401 66.7814 189.613 66.1444C189.825 65.5074 190.462 65.5074 191.099 65.7198C191.524 65.9321 191.736 66.5691 191.524 67.2061C191.312 67.6308 190.675 67.8431 190.038 67.6308Z" fill="#465AA5"/>
<path d="M193.86 55.3152C194.446 55.3152 194.921 54.8399 194.921 54.2536C194.921 53.6672 194.446 53.1919 193.86 53.1919C193.273 53.1919 192.798 53.6672 192.798 54.2536C192.798 54.8399 193.273 55.3152 193.86 55.3152Z" fill="#465AA5"/>
<path d="M191.1 42.9999C190.675 43.2122 190.038 43.2122 189.613 42.5752C189.401 42.1506 189.401 41.5136 190.038 41.0889C190.463 40.8766 191.1 40.8766 191.524 41.5136C191.949 41.9382 191.737 42.5752 191.1 42.9999Z" fill="#465AA5"/>
<path d="M182.606 33.657C182.394 34.0817 181.757 34.294 181.12 34.0817C180.695 33.8694 180.483 33.2324 180.695 32.5954C180.907 32.1707 181.544 31.9584 182.181 32.1707C182.606 32.383 182.818 33.02 182.606 33.657Z" fill="#465AA5"/>
<path d="M157.968 46.3505L156.973 48.2261L168.414 54.2968L169.409 52.4213L157.968 46.3505Z" fill="#465AA5"/>
<path d="M186.317 43.7494L169.211 53.1807L170.031 54.6682L187.138 45.2369L186.317 43.7494Z" fill="#465AA5"/>
<path d="M174.325 54.2533C174.325 57.0136 172.202 59.1369 169.442 59.1369C166.681 59.1369 164.558 57.0136 164.558 54.2533C164.558 51.493 166.681 49.3696 169.442 49.3696C171.99 49.3696 174.325 51.7053 174.325 54.2533Z" fill="#F2948F"/>
<path d="M156.277 19.2184C156.064 18.5814 155.64 18.1567 155.215 17.5197C151.605 12.4238 144.598 11.3621 139.715 14.7594C134.619 18.3691 133.557 25.3761 136.954 30.2597C137.379 30.8967 137.804 31.3214 138.228 31.746L156.277 19.2184Z" fill="#F2948F"/>
<path d="M4.88333 146.831C2.97234 147.68 0.849008 146.618 0.21201 144.92C-0.637321 143.009 0.424343 140.885 2.123 140.248L10.1917 136.851C12.1026 136.002 14.226 137.064 14.863 138.762C15.7123 140.673 14.6506 142.796 12.952 143.433L4.88333 146.831Z" fill="#8EA7D7"/>
<path d="M44.5897 163.392C45.439 165.303 47.35 166.153 49.261 165.303C51.172 164.454 52.0213 162.543 51.172 160.632L47.987 152.776C47.1377 150.865 45.2267 150.016 43.3157 150.865C41.4047 151.714 40.5553 153.625 41.4047 155.536L44.5897 163.392Z" fill="#8EA7D7"/>
<path d="M35.2472 85.4665C34.8226 83.5555 35.0349 81.6445 35.8842 79.9459C38.6446 73.5759 48.4119 71.4525 57.7545 75.2745C67.0972 79.0965 72.4055 87.5898 69.6451 94.1721C69.0082 95.6585 67.9465 97.1448 66.4602 98.2065L64.5492 95.6585C65.6108 95.0215 66.2478 93.9598 66.6725 92.8981C68.5835 88.0145 63.9122 81.4322 56.4805 78.2472C48.8365 75.0622 40.7679 76.3362 38.8569 81.2198C38.4322 82.2815 38.2199 83.5555 38.4322 84.8295L35.2472 85.4665Z" fill="#A5B7DF"/>
<path d="M68.2384 96.7324L58.7859 103.222L67.1985 115.475L76.651 108.986L68.2384 96.7324Z" fill="#465AA5"/>
<path d="M62.6382 96.7202C63.0628 96.2956 63.6998 95.8709 64.1245 95.4462C69.4328 92.2612 76.2275 93.7476 79.6248 99.0559C82.8098 104.364 81.3235 111.159 76.0151 114.556C75.3781 114.981 74.9535 115.193 74.3165 115.406L62.6382 96.7202Z" fill="#F7BFC1"/>
<path d="M35.0169 83.1967L20.3721 85.7368L22.3316 97.0342L36.9764 94.4941L35.0169 83.1967Z" fill="#465AA5"/>
<path d="M68.5832 137.913C61.3639 155.324 41.4046 163.393 23.9933 155.961C6.58203 148.742 -1.48661 128.783 5.94503 111.371C13.1643 93.96 33.1236 85.8913 50.5349 93.323C67.7339 100.755 75.8025 120.714 68.5832 137.913Z" fill="#F7BFC1"/>
<path d="M47.7654 150.954C62.2219 145.1 69.1961 128.636 63.3427 114.179C57.4893 99.7229 41.0248 92.7487 26.5682 98.6021C12.1117 104.456 5.13748 120.92 10.9909 135.377C16.8443 149.833 33.3088 156.807 47.7654 150.954Z" fill="#FCE2E3"/>
<path d="M47.7748 102.453C47.5625 103.09 46.9255 103.303 46.5008 103.09C45.8638 102.878 45.6515 102.241 45.8638 101.816C46.0761 101.179 46.7131 100.967 47.1378 101.179C47.7748 101.392 47.9871 102.029 47.7748 102.453Z" fill="#465AA5"/>
<path d="M35.2469 100.117C35.2469 100.754 34.8223 101.179 34.3976 101.179C33.7606 101.179 33.3359 100.754 33.3359 100.33C33.3359 99.6927 33.7606 99.2681 34.1853 99.2681C34.6099 99.2681 35.2469 99.6927 35.2469 100.117Z" fill="#465AA5"/>
<path d="M23.144 104.577C23.5687 105.001 23.3563 105.638 22.9317 106.063C22.507 106.488 21.87 106.275 21.4453 105.851C21.0207 105.426 21.233 104.789 21.6577 104.364C22.2947 103.94 22.9317 103.94 23.144 104.577Z" fill="#465AA5"/>
<path d="M14.8629 114.132C15.4999 114.344 15.7122 114.981 15.4999 115.406C15.2876 116.043 14.6506 116.255 14.2259 116.043C13.5889 115.83 13.3766 115.193 13.5889 114.769C13.8012 114.344 14.4382 113.919 14.8629 114.132Z" fill="#465AA5"/>
<path d="M12.7395 126.871C13.3765 126.871 13.8012 127.296 13.8012 127.72C13.8012 128.357 13.3765 128.782 12.9519 128.782C12.3149 128.782 11.8902 128.357 11.8902 127.933C11.6779 127.296 12.1025 126.871 12.7395 126.871Z" fill="#465AA5"/>
<path d="M16.986 138.762C17.4107 138.338 18.0477 138.55 18.4724 138.975C18.897 139.399 18.6847 140.036 18.26 140.461C17.8354 140.886 17.1984 140.673 16.7737 140.249C16.349 139.824 16.5614 139.187 16.986 138.762Z" fill="#465AA5"/>
<path d="M26.7539 147.043C26.9663 146.618 27.6033 146.193 28.0279 146.406C28.6649 146.618 28.8773 147.255 28.6649 147.68C28.4526 148.317 27.8156 148.529 27.3909 148.317C26.7539 148.104 26.5416 147.467 26.7539 147.043Z" fill="#465AA5"/>
<path d="M39.2815 149.379C39.2815 148.742 39.7062 148.317 40.1308 148.317C40.7678 148.317 41.1925 148.742 41.1925 149.166C41.1925 149.803 40.7678 150.228 40.3432 150.228C39.9185 150.228 39.2815 149.803 39.2815 149.379Z" fill="#465AA5"/>
<path d="M51.3843 144.92C50.9596 144.495 51.172 143.858 51.5966 143.433C52.0213 143.008 52.6583 143.221 53.083 143.645C53.5076 144.07 53.2953 144.707 52.8706 145.132C52.2336 145.557 51.5966 145.557 51.3843 144.92Z" fill="#465AA5"/>
<path d="M59.4527 135.365C58.8157 135.153 58.6034 134.516 58.8157 134.091C59.028 133.666 59.665 133.242 60.0897 133.454C60.5144 133.666 60.939 134.303 60.7267 134.728C60.7267 135.153 60.0897 135.577 59.4527 135.365Z" fill="#465AA5"/>
<path d="M61.7885 122.625C61.1515 122.625 60.7268 122.2 60.7268 121.776C60.7268 121.139 61.1515 120.714 61.5761 120.714C62.2131 120.714 62.6378 121.139 62.6378 121.563C62.8501 122.2 62.4255 122.625 61.7885 122.625Z" fill="#465AA5"/>
<path d="M57.5415 110.734C57.1169 111.159 56.4799 110.947 56.0552 110.522C55.6305 110.097 55.8429 109.46 56.2675 109.036C56.6922 108.611 57.3292 108.823 57.7539 109.248C57.9662 109.673 57.9662 110.31 57.5415 110.734Z" fill="#465AA5"/>
<path d="M29.8309 113.038L28.1858 114.38L36.3742 124.416L38.0194 123.073L29.8309 113.038Z" fill="#465AA5"/>
<path d="M57.1943 121.602L37.7671 123.655L37.9456 125.345L57.3728 123.292L57.1943 121.602Z" fill="#465AA5"/>
<path d="M41.8295 126.659C40.7679 129.207 37.7952 130.269 35.2472 129.207C32.6992 128.146 31.6375 125.173 32.6992 122.625C33.7609 120.077 36.7335 119.015 39.2815 120.077C41.6172 121.351 42.8912 124.111 41.8295 126.659Z" fill="#F2948F"/>
<path d="M38.8564 87.165C38.8564 86.528 38.6441 85.891 38.6441 85.254C37.3701 79.3086 31.4248 75.4867 25.2671 76.7606C19.3218 78.0346 15.4998 83.98 16.7738 90.1376C16.9862 90.7746 17.1985 91.4116 17.4108 92.0486L38.8564 87.165Z" fill="#F7BFC1"/>
<path d="M331.239 146.83C333.15 147.68 335.273 146.618 335.91 144.919C336.76 143.008 335.698 140.885 333.999 140.248L326.143 137.063C324.232 136.214 322.109 137.275 321.472 138.974C320.622 140.885 321.684 143.008 323.383 143.645L331.239 146.83Z" fill="#8EA7D7"/>
<path d="M291.533 163.392C290.684 165.303 288.773 166.153 286.862 165.303C284.951 164.454 284.101 162.543 284.951 160.632L288.136 152.776C288.985 150.865 290.896 150.016 292.807 150.865C294.718 151.714 295.567 153.625 294.718 155.536L291.533 163.392Z" fill="#8EA7D7"/>
<path d="M300.876 85.4665C301.3 83.5555 301.088 81.6445 300.239 79.9459C297.478 73.5759 287.711 71.4525 278.368 75.2745C269.026 79.0965 263.717 87.5898 266.478 94.1721C267.115 95.6585 268.176 97.1448 269.663 98.2065L271.574 95.6585C270.512 95.0215 269.875 93.9598 269.45 92.8981C267.539 88.0145 272.211 81.4322 279.642 78.2472C287.286 75.0622 295.355 76.3362 297.266 81.2198C297.691 82.2815 297.903 83.5555 297.691 84.8295L300.876 85.4665Z" fill="#8EA7D7"/>
<path d="M267.791 96.6354L259.378 108.889L268.83 115.378L277.243 103.125L267.791 96.6354Z" fill="#8EA7D7"/>
<path d="M273.484 96.7202C273.06 96.2956 272.423 95.8709 271.998 95.4462C266.69 92.2612 259.895 93.7476 256.498 99.0559C253.313 104.364 254.799 111.159 260.107 114.556C260.744 114.981 261.169 115.193 261.806 115.406L273.484 96.7202Z" fill="#465AA5"/>
<path d="M301.26 83.2558L299.3 94.5532L313.945 97.0934L315.904 85.7959L301.26 83.2558Z" fill="#8EA7D7"/>
<path d="M311.47 156.299C328.871 149.28 337.287 129.483 330.267 112.083C323.248 94.6819 303.452 86.266 286.051 93.2852C268.651 100.304 260.235 120.101 267.254 137.501C274.273 154.902 294.069 163.318 311.47 156.299Z" fill="#465AA5"/>
<path d="M272.848 135.789C279.005 150.228 295.567 157.023 309.793 150.865C324.232 144.707 331.027 128.145 324.869 113.919C318.711 99.4804 302.15 92.6858 287.923 98.8434C273.485 104.789 266.69 121.351 272.848 135.789Z" fill="#FCE2E3"/>
<path d="M288.348 102.453C288.56 103.09 289.197 103.303 289.622 103.09C290.259 102.878 290.471 102.241 290.259 101.816C290.046 101.179 289.409 100.967 288.985 101.179C288.348 101.392 288.135 102.029 288.348 102.453Z" fill="#465AA5"/>
<path d="M300.875 100.117C300.875 100.754 301.3 101.179 301.725 101.179C302.362 101.179 302.786 100.754 302.786 100.33C302.786 99.6927 302.362 99.2681 301.937 99.2681C301.512 99.2681 300.875 99.6927 300.875 100.117Z" fill="#465AA5"/>
<path d="M312.979 104.577C312.554 105.001 312.766 105.638 313.191 106.063C313.616 106.488 314.253 106.275 314.677 105.851C315.102 105.426 314.89 104.789 314.465 104.364C313.828 103.94 313.191 103.94 312.979 104.577Z" fill="#465AA5"/>
<path d="M321.047 114.132C320.41 114.344 320.198 114.981 320.41 115.406C320.622 116.043 321.259 116.255 321.684 116.043C322.321 115.83 322.533 115.193 322.321 114.769C322.321 114.344 321.684 113.919 321.047 114.132Z" fill="#465AA5"/>
<path d="M323.383 126.871C322.746 126.871 322.321 127.296 322.321 127.72C322.321 128.357 322.746 128.782 323.17 128.782C323.807 128.782 324.232 128.357 324.232 127.933C324.444 127.296 324.02 126.871 323.383 126.871Z" fill="#465AA5"/>
<path d="M319.136 138.762C318.711 138.338 318.074 138.55 317.649 138.975C317.225 139.399 317.437 140.036 317.862 140.461C318.286 140.886 318.923 140.673 319.348 140.249C319.56 139.824 319.561 139.187 319.136 138.762Z" fill="#465AA5"/>
<path d="M309.369 147.043C309.156 146.618 308.519 146.193 308.095 146.406C307.458 146.618 307.245 147.255 307.458 147.68C307.67 148.317 308.307 148.529 308.732 148.317C309.369 148.104 309.581 147.467 309.369 147.043Z" fill="#465AA5"/>
<path d="M296.841 149.379C296.841 148.742 296.417 148.317 295.992 148.317C295.355 148.317 294.93 148.742 294.93 149.166C294.93 149.803 295.355 150.228 295.78 150.228C296.204 150.228 296.841 149.803 296.841 149.379Z" fill="#465AA5"/>
<path d="M284.738 144.92C285.163 144.495 284.951 143.858 284.526 143.433C284.101 143.008 283.464 143.221 283.04 143.645C282.615 144.07 282.827 144.707 283.252 145.132C283.889 145.557 284.526 145.557 284.738 144.92Z" fill="#465AA5"/>
<path d="M276.457 135.365C277.094 135.153 277.307 134.516 277.094 134.091C276.882 133.666 276.245 133.242 275.82 133.454C275.183 133.666 274.971 134.303 275.183 134.728C275.396 135.153 276.033 135.577 276.457 135.365Z" fill="#465AA5"/>
<path d="M274.334 122.625C274.971 122.625 275.396 122.2 275.396 121.776C275.396 121.139 274.971 120.714 274.546 120.714C273.909 120.714 273.485 121.139 273.485 121.563C273.272 122.2 273.697 122.625 274.334 122.625Z" fill="#465AA5"/>
<path d="M278.58 110.734C279.005 111.159 279.642 110.947 280.067 110.522C280.491 110.097 280.279 109.46 279.854 109.036C279.43 108.611 278.793 108.823 278.368 109.248C277.943 109.673 278.156 110.31 278.58 110.734Z" fill="#465AA5"/>
<path d="M306.235 113.132L298.047 123.167L299.692 124.509L307.88 114.474L306.235 113.132Z" fill="#465AA5"/>
<path d="M279.03 121.546L278.852 123.235L298.279 125.288L298.457 123.599L279.03 121.546Z" fill="#465AA5"/>
<path d="M294.293 126.659C295.355 129.207 298.327 130.269 300.875 129.207C303.423 128.146 304.485 125.173 303.423 122.625C302.362 120.077 299.389 119.015 296.841 120.077C294.293 121.351 293.231 124.111 294.293 126.659Z" fill="#F2948F"/>
<path d="M297.266 87.165C297.266 86.528 297.478 85.891 297.478 85.254C298.752 79.3086 304.697 75.4867 310.855 76.7606C316.8 78.0346 320.622 83.98 319.348 90.1376C319.136 90.7746 318.924 91.4116 318.711 92.0486L297.266 87.165Z" fill="#465AA5"/>
<path d="M200.229 296.313H133.981L135.68 437.727H148.42C148.42 437.727 157.975 366.595 161.585 327.314H170.29L172.838 437.727H185.578C185.578 437.727 200.442 326.889 200.017 305.443C200.442 303.957 200.229 296.313 200.229 296.313Z" fill="#425AC2"/>
<path d="M200.229 296.313H133.982L125.701 208.407C125.064 201.188 131.858 195.03 140.776 195.03H193.435C202.353 195.03 209.147 201.188 208.51 208.407L200.229 296.313Z" fill="#2D3446"/>
<path d="M163.921 211.38C164.77 213.715 167.955 213.715 169.017 211.592C171.989 205.647 178.359 196.517 178.359 194.606V181.653C178.359 178.681 173.9 178.893 171.352 178.893H162.859C160.311 178.893 155.852 181.229 155.852 184.201V194.606C156.064 196.517 161.585 205.435 163.921 211.38Z" fill="#EA8996"/>
<path d="M185.791 168.913C184.729 173.372 182.818 177.831 180.27 182.078C174.325 192.27 166.468 195.03 157.763 186.961C153.304 182.927 149.906 175.708 148.632 168.489C147.358 161.269 148.208 154.262 152.242 149.803C160.311 141.098 172.414 140.673 181.119 148.742C186.64 153.838 187.702 161.057 185.791 168.913Z" fill="#F4A4AE"/>
<path d="M153.304 218.175L105.954 237.709C101.495 239.62 96.3988 238.559 93.0015 234.949L50.5349 191.208L58.8159 181.866L100.221 213.291C100.221 213.291 125.064 198.428 135.043 195.88C139.502 194.818 150.544 206.709 150.544 206.709L153.304 218.175Z" fill="#2D3446"/>
<path d="M135.468 437.727H148.42V447.494H122.304C120.605 447.494 119.968 443.672 121.454 442.823L135.468 437.727Z" fill="#222A51"/>
<path d="M185.791 437.727H172.839V447.494H198.956C200.654 447.494 201.291 443.672 199.805 442.823L185.791 437.727Z" fill="#222A51"/>
<path d="M141.626 296.525H138.865V437.939H141.626V296.525Z" fill="#1A1B39"/>
<path d="M149.058 296.525V431.994C148.633 435.816 148.208 437.939 148.208 437.939H146.51V296.525H149.058Z" fill="#1A1B39"/>
<path d="M156.701 296.525V372.753C155.852 380.397 154.79 387.828 153.941 395.048V296.525H156.701Z" fill="#1A1B39"/>
<path d="M164.133 296.525V327.526H161.585C161.585 328.163 161.373 328.8 161.373 329.437V296.525H164.133Z" fill="#1A1B39"/>
<path d="M171.565 296.525V381.246L170.291 327.314H168.804V296.525H171.565Z" fill="#1A1B39"/>
<path d="M178.996 296.525H176.236V437.939H178.996V296.525Z" fill="#1A1B39"/>
<path d="M186.428 296.525V430.72C185.791 435.179 185.579 437.939 185.579 437.939H183.88V296.525H186.428Z" fill="#1A1B39"/>
<path d="M194.072 296.525V371.266C193.223 378.91 192.161 386.342 191.312 393.561V296.525H194.072Z" fill="#1A1B39"/>
<path d="M200.229 296.313H133.981V300.984H200.229V296.313Z" fill="#F7BFC1"/>
<path d="M58.8157 181.866C58.8157 181.866 61.1513 171.249 58.6033 171.249C56.0553 171.249 55.206 177.619 54.1443 177.831C51.5964 178.681 48.4114 175.071 44.5894 171.886C40.9797 168.701 34.8221 169.126 35.0344 172.523C35.4591 178.681 50.5347 191.208 50.5347 191.208L58.8157 181.866Z" fill="#EA8996"/>
<path d="M180.27 218.175L227.62 237.709C232.079 239.62 237.175 238.559 240.573 234.949L283.039 191.208L274.758 181.866L233.353 213.291C233.353 213.291 208.511 198.428 198.531 195.88C194.072 194.818 183.031 206.709 183.031 206.709L180.27 218.175Z" fill="#2D3446"/>
<path d="M274.546 181.866C274.546 181.866 272.21 171.249 274.758 171.249C277.306 171.249 278.156 177.619 279.217 177.831C281.765 178.681 284.95 175.071 288.772 171.886C292.382 168.701 298.54 169.126 298.327 172.523C297.903 178.681 282.827 191.208 282.827 191.208L274.546 181.866Z" fill="#EA8996"/>
<path d="M81.5356 294.826C81.5356 299.498 85.3576 303.32 90.029 303.32C94.7003 303.32 98.5223 299.498 98.5223 294.826C98.5223 290.155 94.7003 286.333 90.029 286.333C85.3576 286.121 81.5356 289.943 81.5356 294.826ZM84.5083 294.826C84.5083 291.854 87.0563 289.306 90.029 289.306C93.0016 289.306 95.5496 291.854 95.5496 294.826C95.5496 297.799 93.0016 300.347 90.029 300.347C87.0563 300.135 84.5083 297.799 84.5083 294.826Z" fill="#F2948F"/>
<path d="M92.1523 278.689H63.6997L69.008 309.69H86.6316L92.1523 278.689Z" fill="#F2948F"/>
<path d="M225.497 303.319H287.498L295.992 264.887H233.99L225.497 303.319Z" fill="#BBBBBB"/>
<path d="M287.711 303.107H210.421V309.689H287.711V303.107Z" fill="#BBBBBB"/>
<path d="M257.984 285.272C257.984 287.607 259.895 289.306 262.018 289.306C264.354 289.306 266.053 287.395 266.053 285.272C266.053 282.936 264.142 281.237 262.018 281.237C259.683 281.237 257.984 282.936 257.984 285.272Z" fill="#4F697F"/>
<path d="M185.791 168.913C185.154 168.489 184.517 168.064 183.88 168.064C178.784 167.427 181.544 173.797 178.784 173.797C176.023 173.797 179.208 170.4 178.784 161.269C178.147 151.077 169.441 148.954 161.16 152.776C152.454 156.81 159.461 173.16 156.064 172.735C152.667 172.098 156.276 167.002 152.454 166.153C150.543 165.728 149.269 166.79 148.632 168.489C147.358 161.269 148.208 154.262 152.242 149.803C160.311 141.098 172.414 140.673 181.119 148.742C186.64 153.838 187.702 161.057 185.791 168.913Z" fill="#465AA5"/>
</g>
<defs>
<clipPath id="clip0">
<rect width="365" height="446.536" fill="white" transform="translate(0 0.958008)"/>
</clipPath>
</defs>
</svg>
