<svg width="24" height="25" viewBox="0 0 24 25" fill="none" xmlns="http://www.w3.org/2000/svg">
<path d="M3 3C1.89 3 1 3.89 1 5V17C1 17.5304 1.21071 18.0391 1.58579 18.4142C1.96086 18.7893 2.46957 19 3 19H10.26C11.57 20.88 13.71 22 16 22C17.8565 22 19.637 21.2625 20.9497 19.9497C22.2625 18.637 23 16.8565 23 15C23 13.17 22.28 11.42 21 10.11V7C21 6.46957 20.7893 5.96086 20.4142 5.58579C20.0391 5.21071 19.5304 5 19 5H11L9 3H3ZM16 10C17.3261 10 18.5979 10.5268 19.5355 11.4645C20.4732 12.4021 21 13.6739 21 15C21 16.3261 20.4732 17.5979 19.5355 18.5355C18.5979 19.4732 17.3261 20 16 20C14.6739 20 13.4021 19.4732 12.4645 18.5355C11.5268 17.5979 11 16.3261 11 15C11 13.6739 11.5268 12.4021 12.4645 11.4645C13.4021 10.5268 14.6739 10 16 10ZM15 11V16L18.61 18.16L19.36 16.94L16.5 15.25V11H15Z" fill="#2D3446"/>
</svg>
