<svg width="24" height="25" viewBox="0 0 24 25" fill="none" xmlns="http://www.w3.org/2000/svg">
<path d="M12 3C10.6868 3 9.38642 3.25866 8.17317 3.7612C6.95991 4.26375 5.85752 5.00035 4.92893 5.92893C3.05357 7.8043 2 10.3478 2 13C2 15.6522 3.05357 18.1957 4.92893 20.0711C5.85752 20.9997 6.95991 21.7362 8.17317 22.2388C9.38642 22.7413 10.6868 23 12 23C14.6522 23 17.1957 21.9464 19.0711 20.0711C20.9464 18.1957 22 15.6522 22 13C22 11.84 21.79 10.69 21.39 9.61L19.79 11.21C19.93 11.8 20 12.4 20 13C20 15.1217 19.1571 17.1566 17.6569 18.6569C16.1566 20.1571 14.1217 21 12 21C9.87827 21 7.84344 20.1571 6.34315 18.6569C4.84285 17.1566 4 15.1217 4 13C4 10.8783 4.84285 8.84344 6.34315 7.34315C7.84344 5.84285 9.87827 5 12 5C12.6 5 13.2 5.07 13.79 5.21L15.4 3.6C14.31 3.21 13.16 3 12 3ZM19 3L15 7V8.5L12.45 11.05C12.3 11 12.15 11 12 11C11.4696 11 10.9609 11.2107 10.5858 11.5858C10.2107 11.9609 10 12.4696 10 13C10 13.5304 10.2107 14.0391 10.5858 14.4142C10.9609 14.7893 11.4696 15 12 15C12.5304 15 13.0391 14.7893 13.4142 14.4142C13.7893 14.0391 14 13.5304 14 13C14 12.85 14 12.7 13.95 12.55L16.5 10H18L22 6H19V3ZM12 7C10.4087 7 8.88258 7.63214 7.75736 8.75736C6.63214 9.88258 6 11.4087 6 13C6 14.5913 6.63214 16.1174 7.75736 17.2426C8.88258 18.3679 10.4087 19 12 19C13.5913 19 15.1174 18.3679 16.2426 17.2426C17.3679 16.1174 18 14.5913 18 13H16C16 14.0609 15.5786 15.0783 14.8284 15.8284C14.0783 16.5786 13.0609 17 12 17C10.9391 17 9.92172 16.5786 9.17157 15.8284C8.42143 15.0783 8 14.0609 8 13C8 11.9391 8.42143 10.9217 9.17157 10.1716C9.92172 9.42143 10.9391 9 12 9V7Z" fill="#1E92FA"/>
</svg>
