<svg width="15" height="16" viewBox="0 0 15 16" fill="none" xmlns="http://www.w3.org/2000/svg">
<path d="M13.795 3.115C14.1844 2.72564 14.1844 2.09436 13.795 1.705C13.4056 1.31564 12.7744 1.31564 12.385 1.705L8.20711 5.88289C7.81658 6.27342 7.18342 6.27342 6.79289 5.88289L2.615 1.705C2.22564 1.31564 1.59436 1.31564 1.205 1.705C0.815639 2.09436 0.815639 2.72564 1.205 3.115L5.38289 7.29289C5.77342 7.68342 5.77342 8.31658 5.38289 8.70711L1.205 12.885C0.815639 13.2744 0.815639 13.9056 1.205 14.295C1.59436 14.6844 2.22564 14.6844 2.615 14.295L6.79289 10.1171C7.18342 9.72658 7.81658 9.72658 8.20711 10.1171L12.385 14.295C12.7744 14.6844 13.4056 14.6844 13.795 14.295C14.1844 13.9056 14.1844 13.2744 13.795 12.885L9.61711 8.70711C9.22658 8.31658 9.22658 7.68342 9.61711 7.29289L13.795 3.115Z" fill="white" stroke="white"/>
</svg>
