<svg width="13" height="10" viewBox="0 0 13 10" fill="none" xmlns="http://www.w3.org/2000/svg">
<path d="M8.44813 3.91426C8.40801 4.27128 8.37307 4.58518 8.33812 4.89909C8.30059 5.24129 8.26824 5.58484 8.22164 5.92569C8.20352 6.05502 8.25141 6.10083 8.35883 6.14529C8.95418 6.39048 9.55081 6.63568 10.1384 6.90109C10.4852 7.05871 10.8023 7.27697 11.0651 7.56797C11.2618 7.78622 11.399 8.03277 11.399 8.34398C11.4003 8.70369 11.2618 8.93946 10.9395 9.07284C10.4814 9.2628 9.99732 9.2601 9.51716 9.24124C8.64744 9.20756 7.83855 8.91386 7.03613 8.59322C6.37478 8.32782 5.70567 8.08531 4.99902 7.98562C4.7557 7.95059 4.5098 7.93307 4.26519 7.90613C4.26131 7.92095 4.25613 7.93712 4.25225 7.95193C4.34414 7.99235 4.43344 8.04085 4.52792 8.07184C4.96278 8.2106 5.40023 8.33725 5.8338 8.48275C6.0797 8.56493 6.30748 8.69022 6.5055 8.9179C6.32819 8.94754 6.17806 8.9718 6.02793 8.99605C5.45329 9.0917 4.87995 9.20352 4.30273 9.27762C3.66726 9.35845 3.02662 9.43255 2.39245 9.25876C2.23973 9.21699 2.08571 9.15232 1.95241 9.06745C1.51755 8.78857 1.42566 8.26584 1.72851 7.83877C1.94853 7.52755 2.23973 7.29987 2.56458 7.13012C3.14569 6.8243 3.73844 6.54272 4.32732 6.25441C4.69229 6.07523 4.69746 6.07793 4.62887 5.66971C4.53698 5.1133 4.43991 4.55824 4.34026 3.97623C4.29755 4.02339 4.26778 4.04898 4.24449 4.08132C4.19789 4.14598 4.14871 4.20931 4.10989 4.27936C3.64008 5.14294 2.84672 5.57271 2.02489 5.95667C1.58614 6.1628 1.13446 6.3339 0.651711 6.39992C0.580529 6.40935 0.506758 6.41474 0.435575 6.40935C0.209086 6.39318 0.0524843 6.27597 0.011069 6.09679C-0.0329347 5.91222 0.056367 5.67375 0.241441 5.57406C0.55335 5.40565 0.874318 5.25746 1.1927 5.09983C1.57579 4.90987 1.96147 4.72799 2.33938 4.52725C2.64611 4.36559 2.88166 4.11365 3.04733 3.80244C3.37347 3.19214 3.68408 2.57241 4.00894 1.96211C4.19013 1.62126 4.41532 1.31274 4.70394 1.05811C4.96925 0.823694 5.27598 0.679539 5.62154 0.670108C6.13276 0.655289 6.64657 0.644511 7.1565 0.676844C7.77255 0.714567 8.23976 1.05542 8.56332 1.59162C8.81311 2.00522 9.02924 2.44173 9.26479 2.86476C9.46151 3.21774 9.65047 3.57745 9.8679 3.91695C10.2536 4.52186 10.8528 4.81826 11.4766 5.07019C11.6979 5.15911 11.9244 5.23725 12.147 5.32347C12.2532 5.36524 12.3606 5.407 12.4615 5.46089C12.6828 5.57945 12.7747 5.79501 12.7087 6.02404C12.6427 6.25576 12.4525 6.39857 12.2105 6.36085C11.9361 6.31639 11.6591 6.2625 11.3951 6.17493C10.7907 5.97688 10.229 5.68049 9.68024 5.35176C9.23502 5.08366 8.96712 4.65928 8.67851 4.24568C8.60991 4.14464 8.54132 4.04764 8.44813 3.91426Z" fill="white"/>
</svg>
