<svg width="295" height="451" viewBox="0 0 295 451" fill="none" xmlns="http://www.w3.org/2000/svg">
<g clip-path="url(#clip0)">
<path d="M66.9767 264.581H62.2803V378.31H66.9767V264.581Z" fill="#CCCCCC"/>
<path d="M45.8546 276.303H41.1582V390.032H45.8546V276.303Z" fill="#CCCCCC"/>
<path d="M89.2789 284.511H84.5825V398.24H89.2789V284.511Z" fill="#CCCCCC"/>
<path d="M95.3438 357.224H23.3638C26.5734 363.097 31.199 368.074 36.7686 371.753V449.844H81.939V371.753C87.5086 368.074 92.1342 363.097 95.3438 357.224Z" fill="#FE958E"/>
<path d="M116.843 372.012H29.429V372.909H116.843V372.012Z" fill="#FFC1C1"/>
<path d="M276.993 398.263L277.725 296.256C277.725 296.256 259.954 307.106 263.258 321.799C264.839 328.851 267.459 333.568 262.55 339.441C257.665 345.314 255.375 349.135 255.847 355.975C256.343 362.814 264.225 365.079 263.234 372.909C262.267 380.739 257.24 386.541 258.137 391.305C260.166 402.178 269.394 406.471 269.394 406.471L276.993 398.263Z" fill="#425AC2"/>
<path d="M294.976 317.672H270.739V318.568H294.976V317.672Z" fill="#8EA8DD"/>
<path d="M291.059 352.083H266.822V352.979H291.059V352.083Z" fill="#8EA8DD"/>
<path d="M292.64 389.584H268.403V390.48H292.64V389.584Z" fill="#8EA8DD"/>
<path d="M87.3199 222.764C79.1071 205.169 53.0527 202.693 41.5596 224.722C31.7892 243.472 8.56675 236.892 2.05315 254.416C-9.67604 286.067 31.7892 298.214 49.3712 281.775C61.5015 270.43 76.936 277.176 90.4352 288.025C112.336 305.62 146.367 268.095 124.844 250.501C108.159 236.868 97.4444 244.439 87.3199 222.764Z" fill="#425AC2"/>
<path d="M210.04 397.461L210.842 285.69C210.842 285.69 191.372 297.577 194.983 313.686C196.73 321.398 199.585 326.587 194.204 333.026C188.847 339.465 186.346 343.64 186.865 351.14C187.408 358.64 196.045 361.116 194.96 369.701C193.898 378.286 188.399 384.631 189.366 389.843C191.585 401.754 201.709 406.471 201.709 406.471L210.04 397.461Z" fill="#425AC2"/>
<path d="M229.77 309.228H203.196V310.125H229.77V309.228Z" fill="#8EA8DD"/>
<path d="M227.197 388.027H200.624V388.923H227.197V388.027Z" fill="#8EA8DD"/>
<path d="M247.658 400.244V266.539C247.658 266.539 225.097 280.312 229.274 298.968C231.28 307.907 234.608 313.922 228.377 321.375C222.17 328.828 219.268 333.663 219.881 342.366C220.495 351.069 230.501 353.922 229.274 363.852C228.023 373.781 218.442 382.862 222.784 387.201C227.126 391.541 237.086 406.447 237.086 406.447L247.658 400.244Z" fill="#425AC2"/>
<path d="M229.557 397.131H278.173L268.922 450.316H238.832L229.557 397.131Z" fill="#0E24A5"/>
<path d="M161.283 306.799C161.283 284.487 212.4 293.072 228.259 229.557C241.098 178.259 226.56 172.928 226.56 172.928H166.026H135.535H75.0245C75.0245 172.928 59.4957 178.518 73.3017 229.557C90.4825 293.072 140.279 284.487 140.279 306.799C140.279 335.974 92.1817 320.526 73.3017 384.041C58.2213 434.726 75.0245 440.67 75.0245 440.67H135.535H166.05H226.56C226.56 440.67 241.098 435.339 228.283 384.041C214.123 327.389 161.283 335.974 161.283 306.799Z" fill="#A4B8EA"/>
<path d="M231.846 201.962H68.7233C59.8261 201.962 52.6045 195.853 52.6045 188.306V177.056C52.6045 169.508 59.8261 163.4 68.7233 163.4H231.823C240.72 163.4 247.942 169.508 247.942 177.056V188.306C247.965 195.83 240.744 201.962 231.846 201.962Z" fill="#8EA8DD"/>
<path d="M194.039 135.923H129.115V151.489C129.115 159.909 134.402 163.706 142.851 163.706H192.505C200.93 163.706 209.308 159.909 209.308 151.489V151.183C209.308 142.763 202.464 135.923 194.039 135.923Z" fill="#425AC2"/>
<path d="M208.624 149.131L216.365 236.868H204.612C204.612 236.868 188.139 184.202 186.251 165.405C184.363 146.607 195.667 144.649 195.667 144.649L208.624 149.131Z" fill="#425AC2"/>
<path d="M171.194 147.951L179.195 236.868H167.442C167.442 236.868 150.143 179.792 148.255 160.994C146.367 142.196 158.497 144.649 158.497 144.649L171.194 147.951Z" fill="#425AC2"/>
<path d="M216.105 236.868H204.588V245.689H227.952C229.486 245.689 230.029 242.222 228.684 241.491L216.105 236.868Z" fill="#FE958E"/>
<path d="M179.195 236.868H167.678V245.689H191.042C192.576 245.689 193.119 242.222 191.774 241.491L179.195 236.868Z" fill="#FE958E"/>
<path d="M129.139 136.513H177.59L183.631 64.7894C184.174 58.3742 179.1 52.8552 172.657 52.8552H134.071C127.629 52.8552 122.555 58.3742 123.097 64.7894L129.139 136.513Z" fill="#2D3446"/>
<path d="M150.285 57.3364H157.813C160.15 57.3364 162.038 55.2137 162.038 52.5721V43.3031C162.038 40.6615 160.15 38.5388 157.813 38.5388H150.285C147.948 38.5388 146.06 40.6615 146.06 43.3031V52.5721C146.06 55.1901 147.948 57.3364 150.285 57.3364Z" fill="#E98896"/>
<path d="M172.115 38.5151C169.094 48.7276 160.551 47.171 150.308 44.152C140.089 41.1331 134.237 30.4017 137.257 20.1657C140.278 9.9532 151.016 4.10402 161.259 7.12295C171.477 10.1655 175.135 28.3026 172.115 38.5151Z" fill="#FFB3B6"/>
<path d="M182.499 59.4353L205.509 98.9408L187.62 106.535L173.365 83.1622L182.499 59.4353Z" fill="#2D3446"/>
<path d="M123.31 54.6946C100.772 74.2705 95.6271 100.214 95.6271 100.214C94.2347 103.21 95.2967 107.998 98.4591 109.035L142.379 130.946L148.491 120.616L117.74 97.2191L140.326 72.879L139.146 52.9493C139.146 52.9257 126.661 51.77 123.31 54.6946Z" fill="#2D3446"/>
<path d="M123.501 98.917L122.875 99.5591L148.642 124.637L149.268 123.995L123.501 98.917Z" fill="#8EA8DD"/>
<path d="M115.611 117.058L115.193 117.851L144.688 133.35L145.105 132.557L115.611 117.058Z" fill="#8EA8DD"/>
<path d="M216.459 130.616H140.845V137.031H216.459V130.616Z" fill="#CCCCCC"/>
<path d="M141.553 130.805H160.834L162.25 122.338H147.689C144.951 122.338 142.638 124.319 142.19 127.008L141.553 130.805Z" fill="#FFB3B6"/>
<path d="M155.689 130.899H216.412L224.743 93.3276H164.02L155.689 130.899Z" fill="#CCCCCC"/>
<path d="M187.407 113.116C187.407 115.333 189.201 117.102 191.396 117.102C193.614 117.102 195.384 115.309 195.384 113.116C195.384 110.899 193.591 109.13 191.396 109.13C189.201 109.13 187.407 110.899 187.407 113.116Z" fill="#8EA8DD"/>
<path d="M79.4849 414.678C77.5261 409.207 85.1489 381.352 87.5089 376.281C89.8453 371.211 145.589 337.295 149.884 337.696C154.179 338.097 207.279 366.022 213.934 377.767C220.589 389.489 221.864 414.702 221.864 414.702H79.4849V414.678Z" fill="#FFC1C1"/>
<path d="M231.846 451H68.7233C59.8261 451 52.6045 444.891 52.6045 437.344V426.094C52.6045 418.547 59.8261 412.438 68.7233 412.438H231.823C240.72 412.438 247.942 418.547 247.942 426.094V437.344C247.965 444.891 240.744 451 231.846 451Z" fill="#8EA8DD"/>
<path d="M150.875 290.973C148.231 290.973 128.006 279.841 116.56 271.633C105.114 263.425 107.757 259.911 112.171 258.449C116.584 256.987 194.605 257.576 197.815 260.784C201.048 264.015 182.853 274.864 174.947 280.43C169.117 284.487 155.854 290.973 150.875 290.973Z" fill="#FFC1C1"/>
<path d="M142.213 39.883C143.323 40.8972 147.641 39.4821 144.998 36.3688C141.765 32.548 138.839 25.9676 144.125 24.7884C149.411 23.6091 147.948 29.93 150.285 29.93C152.621 29.93 150.568 21.5808 151.465 16.8873C152.338 12.1938 164.374 12.7834 170.227 11.9107C176.103 11.0381 176.835 -1.5801 161.731 0.188804C151.559 1.36807 144.125 4.43418 137.682 14.1042C132.797 21.4157 135.181 33.4442 142.213 39.883Z" fill="#FE958E"/>
<path d="M261.724 296.964H237.487V297.86H261.724V296.964Z" fill="#8EA8DD"/>
<path d="M255.47 338.781H231.233V339.677H255.47V338.781Z" fill="#8EA8DD"/>
<path d="M261.724 380.999H237.487V381.895H261.724V380.999Z" fill="#8EA8DD"/>
<path d="M27.7301 318.922C23.9069 322.129 28.7213 330.691 38.3265 328.922C47.9317 327.153 52.8405 322.648 47.5541 317.743C42.2441 312.837 34.9989 312.837 27.7301 318.922Z" fill="#425AC2"/>
<path d="M55.224 301.304C61.7848 289.299 71.8148 299.37 78.0924 302.412C90.6476 308.544 92.6772 300.502 99.2852 303.804C105.964 307.153 103.179 315.785 88.972 318.285C76.6056 320.478 48.5452 313.544 55.224 301.304Z" fill="#425AC2"/>
</g>
<defs>
<clipPath id="clip0">
<rect width="295" height="451" fill="white"/>
</clipPath>
</defs>
</svg>
